<svg width="96" height="96" viewBox="0 0 96 96" fill="none" xmlns="http://www.w3.org/2000/svg">
<path d="M96 48C96 74.5093 74.5093 96 48 96C21.4933 96 0 74.5093 0 48C0 21.4933 21.4933 0 48 0C74.5093 0 96 21.4933 96 48Z" fill="#FFCC4D"/>
<path d="M30.6667 53.3334C34.3486 53.3334 37.3333 49.1547 37.3333 44C37.3333 38.8454 34.3486 34.6667 30.6667 34.6667C26.9848 34.6667 24 38.8454 24 44C24 49.1547 26.9848 53.3334 30.6667 53.3334Z" fill="#664500"/>
<path d="M65.3333 53.3334C69.0152 53.3334 72 49.1547 72 44C72 38.8454 69.0152 34.6667 65.3333 34.6667C61.6514 34.6667 58.6667 38.8454 58.6667 44C58.6667 49.1547 61.6514 53.3334 65.3333 53.3334Z" fill="#664500"/>
<path d="M32 74.6667C37.3333 61.3333 66.6667 61.3333 66.6667 66.6667C66.6667 69.3333 45.3333 64 32 74.6667Z" fill="#664500"/>
</svg>
