<svg width="96" height="96" viewBox="0 0 96 96" fill="none" xmlns="http://www.w3.org/2000/svg">
<path d="M96 48C96 74.5093 74.5093 96 48 96C21.4933 96 0 74.5093 0 48C0 21.4933 21.4933 0 48 0C74.5093 0 96 21.4933 96 48Z" fill="#FFCC4D"/>
<path d="M42.6666 48C41.5493 48 40.5093 47.2933 40.136 46.176C39.5946 44.5787 37.424 40 34.6666 40C31.8346 40 29.632 44.872 29.1973 46.176C28.7306 47.5707 27.2293 48.3307 25.824 47.8613C24.4266 47.3973 23.672 45.8853 24.1386 44.488C24.472 43.4853 27.616 34.6667 34.6666 34.6667C41.7173 34.6667 44.8613 43.4853 45.1973 44.4907C45.664 45.888 44.9093 47.4 43.512 47.864C43.2293 47.9547 42.944 48 42.6666 48ZM69.3333 48C68.216 48 67.176 47.2933 66.8053 46.176C66.264 44.5787 64.088 40 61.3333 40C58.5013 40 56.296 44.872 55.8613 46.176C55.3946 47.5707 53.8986 48.3307 52.488 47.8613C51.0933 47.3973 50.336 45.8853 50.8026 44.488C51.1386 43.4853 54.28 34.6667 61.3333 34.6667C68.3866 34.6667 71.528 43.4853 71.8613 44.4907C72.328 45.888 71.5733 47.4 70.176 47.864C69.896 47.9547 69.6106 48 69.3333 48ZM48 58.6667C38.3386 58.6667 31.928 57.5413 24 56C22.1893 55.6507 18.6666 56 18.6666 61.3333C18.6666 72 30.92 85.3333 48 85.3333C65.0773 85.3333 77.3333 72 77.3333 61.3333C77.3333 56 73.8106 55.648 72 56C64.072 57.5413 57.6613 58.6667 48 58.6667Z" fill="#664500"/>
<path d="M24 61.3333C24 61.3333 32 64 48 64C64 64 72 61.3333 72 61.3333C72 61.3333 68.416 79.3333 48 79.3333C27.584 79.3333 24 61.3333 24 61.3333Z" fill="white"/>
<path d="M48.0001 73.584C38.4108 73.584 31.2748 72.592 26.8348 71.5974L24.6348 66.608C26.8294 67.44 35.0054 69 48.0028 69C61.2134 69 69.4348 67.3574 71.6401 66.4987L69.7708 71.4107C65.4134 72.424 57.9868 73.584 48.0001 73.584Z" fill="#664500"/>
</svg>
